<mxfile host="app.diagrams.net" agent="Mozilla/5.0 (Windows NT 10.0; Win64; x64; rv:132.0) Gecko/20100101 Firefox/132.0" version="24.9.0">
  <diagram name="Page-1" id="9LmkmyHhELTkVy4N6wW-">
    <mxGraphModel dx="1247" dy="1393" grid="1" gridSize="10" guides="1" tooltips="1" connect="1" arrows="1" fold="1" page="1" pageScale="1" pageWidth="1169" pageHeight="827" math="0" shadow="0">
      <root>
        <mxCell id="0" />
        <mxCell id="1" parent="0" />
        <mxCell id="43uyEW6HHNXhdOFkmiJm-2" value="1940&lt;span style=&quot;white-space: pre;&quot;&gt;&#x9;&lt;/span&gt;" style="shape=mxgraph.infographic.ribbonSimple;notch1=0;notch2=10;notch=0;html=1;fillColor=#CCCCCC;strokeColor=#666666;shadow=1;fontSize=17;fontColor=#333333;align=left;spacingLeft=10;fontStyle=1;whiteSpace=wrap;fillStyle=hachure;gradientColor=none;gradientDirection=east;sketch=1;curveFitting=1;jiggle=2;" vertex="1" parent="1">
          <mxGeometry x="120" y="310" width="200" height="50" as="geometry" />
        </mxCell>
        <mxCell id="43uyEW6HHNXhdOFkmiJm-3" value="1950" style="shape=mxgraph.infographic.ribbonSimple;notch1=0;notch2=10;notch=0;html=1;fillColor=#E6E6E6;strokeColor=#666666;shadow=1;fontSize=17;fontColor=#333333;align=left;spacingLeft=10;fontStyle=1;whiteSpace=wrap;fillStyle=cross-hatch;sketch=1;curveFitting=1;jiggle=2;" vertex="1" parent="1">
          <mxGeometry x="320" y="310" width="200" height="50" as="geometry" />
        </mxCell>
        <mxCell id="43uyEW6HHNXhdOFkmiJm-4" value="1960" style="shape=mxgraph.infographic.ribbonSimple;notch1=0;notch2=10;notch=0;html=1;fillColor=#E6E6E6;strokeColor=#666666;shadow=1;fontSize=17;fontColor=#333333;align=left;spacingLeft=10;fontStyle=1;whiteSpace=wrap;fillStyle=dashed;sketch=1;curveFitting=1;jiggle=2;" vertex="1" parent="1">
          <mxGeometry x="520" y="310" width="200" height="50" as="geometry" />
        </mxCell>
        <mxCell id="43uyEW6HHNXhdOFkmiJm-5" value="1970" style="shape=mxgraph.infographic.ribbonSimple;notch1=0;notch2=10;notch=0;html=1;fillColor=#CCCCCC;strokeColor=#666666;shadow=1;fontSize=17;fontColor=#333333;align=left;spacingLeft=10;fontStyle=1;whiteSpace=wrap;fillStyle=zigzag-line;sketch=1;curveFitting=1;jiggle=2;" vertex="1" parent="1">
          <mxGeometry x="720" y="310" width="200" height="50" as="geometry" />
        </mxCell>
        <mxCell id="43uyEW6HHNXhdOFkmiJm-6" value="1980" style="shape=mxgraph.infographic.ribbonSimple;notch1=0;notch2=10;notch=0;html=1;fillColor=#CCCCCC;strokeColor=#666666;shadow=1;fontSize=17;fontColor=#333333;align=left;spacingLeft=10;fontStyle=1;whiteSpace=wrap;fillStyle=dashed;sketch=1;curveFitting=1;jiggle=2;" vertex="1" parent="1">
          <mxGeometry x="920" y="310" width="200" height="50" as="geometry" />
        </mxCell>
        <mxCell id="43uyEW6HHNXhdOFkmiJm-7" value="&lt;div&gt;&lt;font style=&quot;font-size: 10px&quot;&gt;&lt;font style=&quot;font-size: 12px&quot; color=&quot;#10739E&quot;&gt;&lt;b&gt;Cannonball Adderley&lt;/b&gt;&lt;/font&gt;&lt;/font&gt;&lt;/div&gt;&lt;div&gt;&lt;font style=&quot;font-size: 10px&quot;&gt;&lt;font style=&quot;font-size: 12px&quot; color=&quot;#10739E&quot;&gt;&lt;b&gt;(1928-1975)&lt;/b&gt;&lt;/font&gt;&lt;/font&gt;&lt;/div&gt;&lt;div&gt;&lt;font style=&quot;font-size: 10px&quot;&gt;&lt;font size=&quot;1&quot;&gt;Active from 1955-1975; worked with Miles Davis appearing on &lt;b&gt;Milestones&lt;/b&gt; and &lt;b&gt;Kind of Blue&lt;/b&gt;.&lt;br&gt;&lt;/font&gt;&lt;/font&gt;&lt;/div&gt;" style="rounded=1;strokeColor=#6c8ebf;fillColor=#dae8fc;align=left;arcSize=12;verticalAlign=top;whiteSpace=wrap;html=1;fontSize=12;shadow=1;glass=0;sketch=1;curveFitting=1;jiggle=2;" vertex="1" parent="1">
          <mxGeometry x="340" y="180" width="160" height="90" as="geometry" />
        </mxCell>
        <mxCell id="43uyEW6HHNXhdOFkmiJm-8" value="&lt;font style=&quot;font-size: 10px&quot;&gt;&lt;font style=&quot;font-size: 12px&quot; color=&quot;#F2931E&quot;&gt;&lt;b&gt;Label&lt;/b&gt;&lt;/font&gt;&lt;br&gt;&lt;br&gt;&lt;font size=&quot;1&quot;&gt;Lorem ipsum dolor sit amet, consectetur adipisicing elit&lt;/font&gt;&lt;/font&gt;" style="rounded=1;strokeColor=none;fillColor=#DDDDDD;align=center;arcSize=12;verticalAlign=top;whiteSpace=wrap;html=1;fontSize=12;sketch=1;curveFitting=1;jiggle=2;shadow=1;" vertex="1" parent="1">
          <mxGeometry x="480" y="30" width="200" height="70" as="geometry" />
        </mxCell>
        <mxCell id="43uyEW6HHNXhdOFkmiJm-9" value="&lt;font style=&quot;font-size: 10px&quot;&gt;&lt;font style=&quot;font-size: 12px&quot; color=&quot;#AE4132&quot;&gt;&lt;b&gt;Label&lt;/b&gt;&lt;/font&gt;&lt;br&gt;&lt;br&gt;&lt;/font&gt;&lt;div align=&quot;left&quot;&gt;&lt;font style=&quot;font-size: 10px&quot;&gt;&lt;font size=&quot;1&quot;&gt;Lorem ipsum dolor sit amet, consectetur adipisicing elit&lt;/font&gt;&lt;/font&gt;&lt;/div&gt;" style="rounded=1;strokeColor=none;fillColor=#DDDDDD;align=center;arcSize=12;verticalAlign=top;whiteSpace=wrap;html=1;fontSize=12;sketch=1;curveFitting=1;jiggle=2;shadow=1;" vertex="1" parent="1">
          <mxGeometry x="810" y="20" width="200" height="70" as="geometry" />
        </mxCell>
        <mxCell id="43uyEW6HHNXhdOFkmiJm-17" style="edgeStyle=orthogonalEdgeStyle;shape=connector;curved=1;rounded=0;orthogonalLoop=1;jettySize=auto;html=1;exitX=0.5;exitY=1;exitDx=0;exitDy=0;entryX=0.5;entryY=0;entryDx=0;entryDy=0;dashed=1;strokeColor=#B3B3B3;align=center;verticalAlign=middle;fontFamily=Helvetica;fontSize=11;fontColor=default;labelBackgroundColor=default;startArrow=oval;startFill=1;endArrow=oval;endFill=1;fillColor=#f5f5f5;flowAnimation=0;shadow=1;dashPattern=1 1;" edge="1" parent="1" source="43uyEW6HHNXhdOFkmiJm-10" target="43uyEW6HHNXhdOFkmiJm-11">
          <mxGeometry relative="1" as="geometry" />
        </mxCell>
        <mxCell id="43uyEW6HHNXhdOFkmiJm-18" style="edgeStyle=orthogonalEdgeStyle;shape=connector;curved=1;rounded=0;orthogonalLoop=1;jettySize=auto;html=1;exitX=0.5;exitY=0;exitDx=0;exitDy=0;entryX=0.5;entryY=1;entryDx=0;entryDy=0;strokeColor=#B3B3B3;align=center;verticalAlign=middle;fontFamily=Helvetica;fontSize=11;fontColor=default;labelBackgroundColor=default;startArrow=oval;startFill=1;endArrow=oval;endFill=1;fillColor=#f5f5f5;dashed=1;dashPattern=1 1;shadow=1;" edge="1" parent="1" source="43uyEW6HHNXhdOFkmiJm-10" target="43uyEW6HHNXhdOFkmiJm-7">
          <mxGeometry relative="1" as="geometry" />
        </mxCell>
        <mxCell id="43uyEW6HHNXhdOFkmiJm-10" value="&lt;font style=&quot;font-size: 10px&quot;&gt;&lt;font style=&quot;font-size: 12px&quot; color=&quot;#23445D&quot;&gt;&lt;b&gt;Somethin&#39; Else (1958)&lt;br&gt;&lt;i&gt;Cannonball Adderley&lt;/i&gt;&lt;/b&gt;&lt;/font&gt;&lt;br&gt;&lt;font size=&quot;1&quot;&gt;Contains &lt;i&gt;Autumn Leaves;&lt;/i&gt;&lt;/font&gt;&lt;/font&gt;" style="rounded=1;strokeColor=#9673a6;fillColor=#e1d5e7;align=left;arcSize=12;verticalAlign=top;whiteSpace=wrap;html=1;fontSize=12;sketch=1;curveFitting=1;jiggle=2;shadow=1;" vertex="1" parent="1">
          <mxGeometry x="410" y="430" width="140" height="60" as="geometry" />
        </mxCell>
        <mxCell id="43uyEW6HHNXhdOFkmiJm-11" value="&lt;div&gt;&lt;font color=&quot;#004000&quot; style=&quot;font-size: 10px&quot;&gt;&lt;font style=&quot;font-size: 12px&quot;&gt;&lt;b&gt;Blue Note Records (1939-...)&lt;/b&gt;&lt;/font&gt;&lt;/font&gt;&lt;/div&gt;&lt;div&gt;&lt;font style=&quot;font-size: 10px&quot;&gt;&lt;font size=&quot;1&quot;&gt;Lorem ipsum...&lt;/font&gt;&lt;/font&gt;&lt;/div&gt;" style="rounded=1;strokeColor=#82b366;fillColor=#d5e8d4;align=left;arcSize=12;verticalAlign=top;whiteSpace=wrap;html=1;fontSize=12;shadow=1;sketch=1;curveFitting=1;jiggle=2;" vertex="1" parent="1">
          <mxGeometry x="40" y="600" width="120" height="60" as="geometry" />
        </mxCell>
      </root>
    </mxGraphModel>
  </diagram>
</mxfile>
